# Tiled2Unity generated file. Do not modify by hand.
# Wavefront file for 'Mapa2_mesh_0003.obj'

# Vertices (Count = 668)
v -1.52381 -3.047619 0
v -3.047619 -3.047619 0
v -3.047619 -1.52381 0
v -1.52381 -1.52381 0
v -4.571429 -3.047619 0
v -6.095238 -3.047619 0
v -6.095238 -1.52381 0
v -4.571429 -1.52381 0
v -6.095238 -3.047619 0
v -7.619048 -3.047619 0
v -7.619048 -1.52381 0
v -6.095238 -1.52381 0
v -7.619048 -3.047619 0
v -9.142858 -3.047619 0
v -9.142858 -1.52381 0
v -7.619048 -1.52381 0
v -10.66667 -3.047619 0
v -12.19048 -3.047619 0
v -12.19048 -1.52381 0
v -10.66667 -1.52381 0
v 0 -4.571429 0
v -1.52381 -4.571429 0
v -1.52381 -3.047619 0
v 0 -3.047619 0
v -1.52381 -4.571429 0
v -3.047619 -4.571429 0
v -3.047619 -3.047619 0
v -1.52381 -3.047619 0
v -3.047619 -4.571429 0
v -4.571429 -4.571429 0
v -4.571429 -3.047619 0
v -3.047619 -3.047619 0
v -9.142858 -4.571429 0
v -10.66667 -4.571429 0
v -10.66667 -3.047619 0
v -9.142858 -3.047619 0
v -10.66667 -4.571429 0
v -12.19048 -4.571429 0
v -12.19048 -3.047619 0
v -10.66667 -3.047619 0
v -12.19048 -4.571429 0
v -13.71429 -4.571429 0
v -13.71429 -3.047619 0
v -12.19048 -3.047619 0
v -1.52381 -6.095238 0
v -3.047619 -6.095238 0
v -3.047619 -4.571429 0
v -1.52381 -4.571429 0
v -3.047619 -6.095238 0
v -4.571429 -6.095238 0
v -4.571429 -4.571429 0
v -3.047619 -4.571429 0
v -9.142858 -6.095238 0
v -10.66667 -6.095238 0
v -10.66667 -4.571429 0
v -9.142858 -4.571429 0
v -10.66667 -6.095238 0
v -12.19048 -6.095238 0
v -12.19048 -4.571429 0
v -10.66667 -4.571429 0
v 0 -7.619048 0
v -1.52381 -7.619048 0
v -1.52381 -6.095238 0
v 0 -6.095238 0
v -1.52381 -7.619048 0
v -3.047619 -7.619048 0
v -3.047619 -6.095238 0
v -1.52381 -6.095238 0
v -3.047619 -7.619048 0
v -4.571429 -7.619048 0
v -4.571429 -6.095238 0
v -3.047619 -6.095238 0
v -4.571429 -7.619048 0
v -6.095238 -7.619048 0
v -6.095238 -6.095238 0
v -4.571429 -6.095238 0
v -6.095238 -7.619048 0
v -7.619048 -7.619048 0
v -7.619048 -6.095238 0
v -6.095238 -6.095238 0
v -7.619048 -7.619048 0
v -9.142858 -7.619048 0
v -9.142858 -6.095238 0
v -7.619048 -6.095238 0
v -9.142858 -7.619048 0
v -10.66667 -7.619048 0
v -10.66667 -6.095238 0
v -9.142858 -6.095238 0
v -10.66667 -7.619048 0
v -12.19048 -7.619048 0
v -12.19048 -6.095238 0
v -10.66667 -6.095238 0
v -12.19048 -7.619048 0
v -13.71429 -7.619048 0
v -13.71429 -6.095238 0
v -12.19048 -6.095238 0
v -3.047619 -9.142858 0
v -4.571429 -9.142858 0
v -4.571429 -7.619048 0
v -3.047619 -7.619048 0
v -4.571429 -9.142858 0
v -6.095238 -9.142858 0
v -6.095238 -7.619048 0
v -4.571429 -7.619048 0
v -6.095238 -9.142858 0
v -7.619048 -9.142858 0
v -7.619048 -7.619048 0
v -6.095238 -7.619048 0
v -7.619048 -9.142858 0
v -9.142858 -9.142858 0
v -9.142858 -7.619048 0
v -7.619048 -7.619048 0
v -9.142858 -9.142858 0
v -10.66667 -9.142858 0
v -10.66667 -7.619048 0
v -9.142858 -7.619048 0
v 0 -10.66667 0
v -1.52381 -10.66667 0
v -1.52381 -9.142858 0
v 0 -9.142858 0
v -1.52381 -10.66667 0
v -3.047619 -10.66667 0
v -3.047619 -9.142858 0
v -1.52381 -9.142858 0
v -3.047619 -10.66667 0
v -4.571429 -10.66667 0
v -4.571429 -9.142858 0
v -3.047619 -9.142858 0
v -6.095238 -10.66667 0
v -7.619048 -10.66667 0
v -7.619048 -9.142858 0
v -6.095238 -9.142858 0
v -9.142858 -10.66667 0
v -10.66667 -10.66667 0
v -10.66667 -9.142858 0
v -9.142858 -9.142858 0
v -10.66667 -10.66667 0
v -12.19048 -10.66667 0
v -12.19048 -9.142858 0
v -10.66667 -9.142858 0
v -12.19048 -10.66667 0
v -13.71429 -10.66667 0
v -13.71429 -9.142858 0
v -12.19048 -9.142858 0
v 0 -12.19048 0
v -1.52381 -12.19048 0
v -1.52381 -10.66667 0
v 0 -10.66667 0
v -1.52381 -12.19048 0
v -3.047619 -12.19048 0
v -3.047619 -10.66667 0
v -1.52381 -10.66667 0
v -4.571429 -12.19048 0
v -6.095238 -12.19048 0
v -6.095238 -10.66667 0
v -4.571429 -10.66667 0
v -6.095238 -12.19048 0
v -7.619048 -12.19048 0
v -7.619048 -10.66667 0
v -6.095238 -10.66667 0
v -9.142858 -12.19048 0
v -10.66667 -12.19048 0
v -10.66667 -10.66667 0
v -9.142858 -10.66667 0
v -10.66667 -12.19048 0
v -12.19048 -12.19048 0
v -12.19048 -10.66667 0
v -10.66667 -10.66667 0
v -12.19048 -12.19048 0
v -13.71429 -12.19048 0
v -13.71429 -10.66667 0
v -12.19048 -10.66667 0
v -4.571429 -13.71429 0
v -6.095238 -13.71429 0
v -6.095238 -12.19048 0
v -4.571429 -12.19048 0
v -6.095238 -13.71429 0
v -7.619048 -13.71429 0
v -7.619048 -12.19048 0
v -6.095238 -12.19048 0
v -7.619048 -13.71429 0
v -9.142858 -13.71429 0
v -9.142858 -12.19048 0
v -7.619048 -12.19048 0
v 0 -15.2381 0
v -1.52381 -15.2381 0
v -1.52381 -13.71429 0
v 0 -13.71429 0
v -1.52381 -15.2381 0
v -3.047619 -15.2381 0
v -3.047619 -13.71429 0
v -1.52381 -13.71429 0
v -3.047619 -15.2381 0
v -4.571429 -15.2381 0
v -4.571429 -13.71429 0
v -3.047619 -13.71429 0
v -9.142858 -15.2381 0
v -10.66667 -15.2381 0
v -10.66667 -13.71429 0
v -9.142858 -13.71429 0
v -10.66667 -15.2381 0
v -12.19048 -15.2381 0
v -12.19048 -13.71429 0
v -10.66667 -13.71429 0
v -12.19048 -15.2381 0
v -13.71429 -15.2381 0
v -13.71429 -13.71429 0
v -12.19048 -13.71429 0
v 0 -16.76191 0
v -1.52381 -16.76191 0
v -1.52381 -15.2381 0
v 0 -15.2381 0
v -1.52381 -16.76191 0
v -3.047619 -16.76191 0
v -3.047619 -15.2381 0
v -1.52381 -15.2381 0
v -3.047619 -16.76191 0
v -4.571429 -16.76191 0
v -4.571429 -15.2381 0
v -3.047619 -15.2381 0
v -9.142858 -16.76191 0
v -10.66667 -16.76191 0
v -10.66667 -15.2381 0
v -9.142858 -15.2381 0
v -10.66667 -16.76191 0
v -12.19048 -16.76191 0
v -12.19048 -15.2381 0
v -10.66667 -15.2381 0
v -12.19048 -16.76191 0
v -13.71429 -16.76191 0
v -13.71429 -15.2381 0
v -12.19048 -15.2381 0
v -3.047619 -18.28572 0
v -4.571429 -18.28572 0
v -4.571429 -16.76191 0
v -3.047619 -16.76191 0
v -9.142858 -18.28572 0
v -10.66667 -18.28572 0
v -10.66667 -16.76191 0
v -9.142858 -16.76191 0
v 0 -19.80952 0
v -1.52381 -19.80952 0
v -1.52381 -18.28572 0
v 0 -18.28572 0
v -1.52381 -19.80952 0
v -3.047619 -19.80952 0
v -3.047619 -18.28572 0
v -1.52381 -18.28572 0
v -9.142858 -19.80952 0
v -10.66667 -19.80952 0
v -10.66667 -18.28572 0
v -9.142858 -18.28572 0
v -10.66667 -19.80952 0
v -12.19048 -19.80952 0
v -12.19048 -18.28572 0
v -10.66667 -18.28572 0
v -12.19048 -19.80952 0
v -13.71429 -19.80952 0
v -13.71429 -18.28572 0
v -12.19048 -18.28572 0
v 0 -24.38095 0
v -1.52381 -24.38095 0
v -1.52381 -22.85714 0
v 0 -22.85714 0
v -1.52381 -24.38095 0
v -3.047619 -24.38095 0
v -3.047619 -22.85714 0
v -1.52381 -22.85714 0
v -3.047619 -24.38095 0
v -4.571429 -24.38095 0
v -4.571429 -22.85714 0
v -3.047619 -22.85714 0
v -9.142858 -24.38095 0
v -10.66667 -24.38095 0
v -10.66667 -22.85714 0
v -9.142858 -22.85714 0
v -10.66667 -24.38095 0
v -12.19048 -24.38095 0
v -12.19048 -22.85714 0
v -10.66667 -22.85714 0
v -12.19048 -24.38095 0
v -13.71429 -24.38095 0
v -13.71429 -22.85714 0
v -12.19048 -22.85714 0
v 0 -25.90476 0
v -1.52381 -25.90476 0
v -1.52381 -24.38095 0
v 0 -24.38095 0
v -1.52381 -25.90476 0
v -3.047619 -25.90476 0
v -3.047619 -24.38095 0
v -1.52381 -24.38095 0
v -3.047619 -25.90476 0
v -4.571429 -25.90476 0
v -4.571429 -24.38095 0
v -3.047619 -24.38095 0
v -9.142858 -25.90476 0
v -10.66667 -25.90476 0
v -10.66667 -24.38095 0
v -9.142858 -24.38095 0
v -10.66667 -25.90476 0
v -12.19048 -25.90476 0
v -12.19048 -24.38095 0
v -10.66667 -24.38095 0
v -12.19048 -25.90476 0
v -13.71429 -25.90476 0
v -13.71429 -24.38095 0
v -12.19048 -24.38095 0
v -3.047619 -27.42857 0
v -4.571429 -27.42857 0
v -4.571429 -25.90476 0
v -3.047619 -25.90476 0
v -9.142858 -27.42857 0
v -10.66667 -27.42857 0
v -10.66667 -25.90476 0
v -9.142858 -25.90476 0
v 0 -28.95238 0
v -1.52381 -28.95238 0
v -1.52381 -27.42857 0
v 0 -27.42857 0
v -1.52381 -28.95238 0
v -3.047619 -28.95238 0
v -3.047619 -27.42857 0
v -1.52381 -27.42857 0
v -10.66667 -28.95238 0
v -12.19048 -28.95238 0
v -12.19048 -27.42857 0
v -10.66667 -27.42857 0
v -12.19048 -28.95238 0
v -13.71429 -28.95238 0
v -13.71429 -27.42857 0
v -12.19048 -27.42857 0
v 0 -33.52381 0
v -1.52381 -33.52381 0
v -1.52381 -32 0
v 0 -32 0
v -1.52381 -33.52381 0
v -3.047619 -33.52381 0
v -3.047619 -32 0
v -1.52381 -32 0
v -3.047619 -33.52381 0
v -4.571429 -33.52381 0
v -4.571429 -32 0
v -3.047619 -32 0
v -9.142858 -33.52381 0
v -10.66667 -33.52381 0
v -10.66667 -32 0
v -9.142858 -32 0
v -10.66667 -33.52381 0
v -12.19048 -33.52381 0
v -12.19048 -32 0
v -10.66667 -32 0
v -12.19048 -33.52381 0
v -13.71429 -33.52381 0
v -13.71429 -32 0
v -12.19048 -32 0
v 0 -35.04762 0
v -1.52381 -35.04762 0
v -1.52381 -33.52381 0
v 0 -33.52381 0
v -1.52381 -35.04762 0
v -3.047619 -35.04762 0
v -3.047619 -33.52381 0
v -1.52381 -33.52381 0
v -3.047619 -35.04762 0
v -4.571429 -35.04762 0
v -4.571429 -33.52381 0
v -3.047619 -33.52381 0
v -9.142858 -35.04762 0
v -10.66667 -35.04762 0
v -10.66667 -33.52381 0
v -9.142858 -33.52381 0
v -10.66667 -35.04762 0
v -12.19048 -35.04762 0
v -12.19048 -33.52381 0
v -10.66667 -33.52381 0
v -12.19048 -35.04762 0
v -13.71429 -35.04762 0
v -13.71429 -33.52381 0
v -12.19048 -33.52381 0
v -3.047619 -36.57143 0
v -4.571429 -36.57143 0
v -4.571429 -35.04762 0
v -3.047619 -35.04762 0
v -9.142858 -36.57143 0
v -10.66667 -36.57143 0
v -10.66667 -35.04762 0
v -9.142858 -35.04762 0
v 0 -38.09524 0
v -1.52381 -38.09524 0
v -1.52381 -36.57143 0
v 0 -36.57143 0
v -1.52381 -38.09524 0
v -3.047619 -38.09524 0
v -3.047619 -36.57143 0
v -1.52381 -36.57143 0
v -10.66667 -38.09524 0
v -12.19048 -38.09524 0
v -12.19048 -36.57143 0
v -10.66667 -36.57143 0
v -12.19048 -38.09524 0
v -13.71429 -38.09524 0
v -13.71429 -36.57143 0
v -12.19048 -36.57143 0
v 0 -42.66667 0
v -1.52381 -42.66667 0
v -1.52381 -41.14286 0
v 0 -41.14286 0
v -1.52381 -42.66667 0
v -3.047619 -42.66667 0
v -3.047619 -41.14286 0
v -1.52381 -41.14286 0
v -3.047619 -42.66667 0
v -4.571429 -42.66667 0
v -4.571429 -41.14286 0
v -3.047619 -41.14286 0
v -9.142858 -42.66667 0
v -10.66667 -42.66667 0
v -10.66667 -41.14286 0
v -9.142858 -41.14286 0
v -10.66667 -42.66667 0
v -12.19048 -42.66667 0
v -12.19048 -41.14286 0
v -10.66667 -41.14286 0
v -12.19048 -42.66667 0
v -13.71429 -42.66667 0
v -13.71429 -41.14286 0
v -12.19048 -41.14286 0
v 0 -44.19048 0
v -1.52381 -44.19048 0
v -1.52381 -42.66667 0
v 0 -42.66667 0
v -1.52381 -44.19048 0
v -3.047619 -44.19048 0
v -3.047619 -42.66667 0
v -1.52381 -42.66667 0
v -3.047619 -44.19048 0
v -4.571429 -44.19048 0
v -4.571429 -42.66667 0
v -3.047619 -42.66667 0
v -9.142858 -44.19048 0
v -10.66667 -44.19048 0
v -10.66667 -42.66667 0
v -9.142858 -42.66667 0
v -10.66667 -44.19048 0
v -12.19048 -44.19048 0
v -12.19048 -42.66667 0
v -10.66667 -42.66667 0
v -12.19048 -44.19048 0
v -13.71429 -44.19048 0
v -13.71429 -42.66667 0
v -12.19048 -42.66667 0
v -3.047619 -45.71429 0
v -4.571429 -45.71429 0
v -4.571429 -44.19048 0
v -3.047619 -44.19048 0
v -9.142858 -45.71429 0
v -10.66667 -45.71429 0
v -10.66667 -44.19048 0
v -9.142858 -44.19048 0
v 0 -47.23809 0
v -1.52381 -47.23809 0
v -1.52381 -45.71429 0
v 0 -45.71429 0
v -1.52381 -47.23809 0
v -3.047619 -47.23809 0
v -3.047619 -45.71429 0
v -1.52381 -45.71429 0
v -10.66667 -47.23809 0
v -12.19048 -47.23809 0
v -12.19048 -45.71429 0
v -10.66667 -45.71429 0
v -12.19048 -47.23809 0
v -13.71429 -47.23809 0
v -13.71429 -45.71429 0
v -12.19048 -45.71429 0
v 0 -51.80952 0
v -1.52381 -51.80952 0
v -1.52381 -50.28572 0
v 0 -50.28572 0
v -1.52381 -51.80952 0
v -3.047619 -51.80952 0
v -3.047619 -50.28572 0
v -1.52381 -50.28572 0
v -3.047619 -51.80952 0
v -4.571429 -51.80952 0
v -4.571429 -50.28572 0
v -3.047619 -50.28572 0
v -9.142858 -51.80952 0
v -10.66667 -51.80952 0
v -10.66667 -50.28572 0
v -9.142858 -50.28572 0
v -10.66667 -51.80952 0
v -12.19048 -51.80952 0
v -12.19048 -50.28572 0
v -10.66667 -50.28572 0
v -12.19048 -51.80952 0
v -13.71429 -51.80952 0
v -13.71429 -50.28572 0
v -12.19048 -50.28572 0
v 0 -53.33334 0
v -1.52381 -53.33334 0
v -1.52381 -51.80952 0
v 0 -51.80952 0
v -1.52381 -53.33334 0
v -3.047619 -53.33334 0
v -3.047619 -51.80952 0
v -1.52381 -51.80952 0
v -3.047619 -53.33334 0
v -4.571429 -53.33334 0
v -4.571429 -51.80952 0
v -3.047619 -51.80952 0
v -9.142858 -53.33334 0
v -10.66667 -53.33334 0
v -10.66667 -51.80952 0
v -9.142858 -51.80952 0
v -10.66667 -53.33334 0
v -12.19048 -53.33334 0
v -12.19048 -51.80952 0
v -10.66667 -51.80952 0
v -12.19048 -53.33334 0
v -13.71429 -53.33334 0
v -13.71429 -51.80952 0
v -12.19048 -51.80952 0
v -3.047619 -54.85714 0
v -4.571429 -54.85714 0
v -4.571429 -53.33334 0
v -3.047619 -53.33334 0
v -9.142858 -54.85714 0
v -10.66667 -54.85714 0
v -10.66667 -53.33334 0
v -9.142858 -53.33334 0
v 0 -56.38095 0
v -1.52381 -56.38095 0
v -1.52381 -54.85714 0
v 0 -54.85714 0
v -1.52381 -56.38095 0
v -3.047619 -56.38095 0
v -3.047619 -54.85714 0
v -1.52381 -54.85714 0
v -10.66667 -56.38095 0
v -12.19048 -56.38095 0
v -12.19048 -54.85714 0
v -10.66667 -54.85714 0
v -12.19048 -56.38095 0
v -13.71429 -56.38095 0
v -13.71429 -54.85714 0
v -12.19048 -54.85714 0
v 0 -60.95238 0
v -1.52381 -60.95238 0
v -1.52381 -59.42857 0
v 0 -59.42857 0
v -1.52381 -60.95238 0
v -3.047619 -60.95238 0
v -3.047619 -59.42857 0
v -1.52381 -59.42857 0
v -10.66667 -60.95238 0
v -12.19048 -60.95238 0
v -12.19048 -59.42857 0
v -10.66667 -59.42857 0
v -12.19048 -60.95238 0
v -13.71429 -60.95238 0
v -13.71429 -59.42857 0
v -12.19048 -59.42857 0
v 0 -62.47619 0
v -1.52381 -62.47619 0
v -1.52381 -60.95238 0
v 0 -60.95238 0
v -1.52381 -62.47619 0
v -3.047619 -62.47619 0
v -3.047619 -60.95238 0
v -1.52381 -60.95238 0
v -10.66667 -62.47619 0
v -12.19048 -62.47619 0
v -12.19048 -60.95238 0
v -10.66667 -60.95238 0
v -12.19048 -62.47619 0
v -13.71429 -62.47619 0
v -13.71429 -60.95238 0
v -12.19048 -60.95238 0
v 0 -65.52381 0
v -1.52381 -65.52381 0
v -1.52381 -64 0
v 0 -64 0
v -1.52381 -65.52381 0
v -3.047619 -65.52381 0
v -3.047619 -64 0
v -1.52381 -64 0
v -3.047619 -65.52381 0
v -4.571429 -65.52381 0
v -4.571429 -64 0
v -3.047619 -64 0
v -9.142858 -65.52381 0
v -10.66667 -65.52381 0
v -10.66667 -64 0
v -9.142858 -64 0
v -10.66667 -65.52381 0
v -12.19048 -65.52381 0
v -12.19048 -64 0
v -10.66667 -64 0
v -12.19048 -65.52381 0
v -13.71429 -65.52381 0
v -13.71429 -64 0
v -12.19048 -64 0
v -3.047619 -67.04762 0
v -4.571429 -67.04762 0
v -4.571429 -65.52381 0
v -3.047619 -65.52381 0
v -9.142858 -67.04762 0
v -10.66667 -67.04762 0
v -10.66667 -65.52381 0
v -9.142858 -65.52381 0
v -3.047619 -68.57143 0
v -4.571429 -68.57143 0
v -4.571429 -67.04762 0
v -3.047619 -67.04762 0
v -9.142858 -68.57143 0
v -10.66667 -68.57143 0
v -10.66667 -67.04762 0
v -9.142858 -67.04762 0
v 0 -70.09524 0
v -1.52381 -70.09524 0
v -1.52381 -68.57143 0
v 0 -68.57143 0
v -1.52381 -70.09524 0
v -3.047619 -70.09524 0
v -3.047619 -68.57143 0
v -1.52381 -68.57143 0
v -10.66667 -70.09524 0
v -12.19048 -70.09524 0
v -12.19048 -68.57143 0
v -10.66667 -68.57143 0
v -12.19048 -70.09524 0
v -13.71429 -70.09524 0
v -13.71429 -68.57143 0
v -12.19048 -68.57143 0
v 0 -71.61905 0
v -1.52381 -71.61905 0
v -1.52381 -70.09524 0
v 0 -70.09524 0
v -1.52381 -71.61905 0
v -3.047619 -71.61905 0
v -3.047619 -70.09524 0
v -1.52381 -70.09524 0
v -10.66667 -71.61905 0
v -12.19048 -71.61905 0
v -12.19048 -70.09524 0
v -10.66667 -70.09524 0
v -12.19048 -71.61905 0
v -13.71429 -71.61905 0
v -13.71429 -70.09524 0
v -12.19048 -70.09524 0
v 0 -74.66667 0
v -1.52381 -74.66667 0
v -1.52381 -73.14286 0
v 0 -73.14286 0
v -1.52381 -74.66667 0
v -3.047619 -74.66667 0
v -3.047619 -73.14286 0
v -1.52381 -73.14286 0
v -10.66667 -74.66667 0
v -12.19048 -74.66667 0
v -12.19048 -73.14286 0
v -10.66667 -73.14286 0
v -12.19048 -74.66667 0
v -13.71429 -74.66667 0
v -13.71429 -73.14286 0
v -12.19048 -73.14286 0

# Texture cooridinates (Count = 45)
vt 0.4375 0.5
vt 0.5 0.5
vt 0.5 0.5625
vt 0.4375 0.5625
vt 0.1875 0.5
vt 0.25 0.5
vt 0.25 0.5625
vt 0.1875 0.5625
vt 0.5625 0.5
vt 0.5625 0.5625
vt 0.375 0.5
vt 0.375 0.5625
vt 0.4375 0.4375
vt 0.5 0.4375
vt 0.5625 0.4375
vt 0.4375 0.375
vt 0.5 0.375
vt 0.6875 0.125
vt 0.75 0.125
vt 0.75 0.1875
vt 0.6875 0.1875
vt 0.5625 0.375
vt 0.1875 0.4375
vt 0.25 0.4375
vt 0.3125 0.4375
vt 0.3125 0.5
vt 0.6875 0.0625
vt 0.75 0.0625
vt 0.0625 0.25
vt 0.125 0.25
vt 0.125 0.3125
vt 0.0625 0.3125
vt 0.6875 0
vt 0.75 0
vt 0 0.5625
vt 0.0625 0.5625
vt 0.0625 0.625
vt 0 0.625
vt 0.3125 0.5625
vt 0.125 0.5625
vt 0.1875 0.625
vt 0.125 0.625
vt 0.125 0.5
vt 0.3125 0.625
vt 0.25 0.625

# Normal
vn 0 0 -1

# Mesh description
g Mapa2_mesh_0003

# Faces
f 1/1/1 2/2/1 3/3/1 4/4/1
f 5/5/1 6/6/1 7/7/1 8/8/1
f 9/5/1 10/6/1 11/7/1 12/8/1
f 13/5/1 14/6/1 15/7/1 16/8/1
f 17/2/1 18/9/1 19/10/1 20/3/1
f 21/11/1 22/1/1 23/4/1 24/12/1
f 25/13/1 26/14/1 27/2/1 28/1/1
f 29/11/1 30/1/1 31/4/1 32/12/1
f 33/11/1 34/1/1 35/4/1 36/12/1
f 37/14/1 38/15/1 39/9/1 40/2/1
f 41/11/1 42/1/1 43/4/1 44/12/1
f 45/16/1 46/17/1 47/14/1 48/13/1
f 49/18/1 50/19/1 51/20/1 52/21/1
f 53/18/1 54/19/1 55/20/1 56/21/1
f 57/17/1 58/22/1 59/15/1 60/14/1
f 61/23/1 62/24/1 63/6/1 64/5/1
f 65/24/1 66/25/1 67/26/1 68/6/1
f 69/27/1 70/28/1 71/19/1 72/18/1
f 73/29/1 74/30/1 75/31/1 76/32/1
f 77/29/1 78/30/1 79/31/1 80/32/1
f 81/29/1 82/30/1 83/31/1 84/32/1
f 85/27/1 86/28/1 87/19/1 88/18/1
f 89/23/1 90/24/1 91/6/1 92/5/1
f 93/24/1 94/25/1 95/26/1 96/6/1
f 97/33/1 98/34/1 99/28/1 100/27/1
f 101/29/1 102/30/1 103/31/1 104/32/1
f 105/29/1 106/30/1 107/31/1 108/32/1
f 109/29/1 110/30/1 111/31/1 112/32/1
f 113/33/1 114/34/1 115/28/1 116/27/1
f 117/35/1 118/36/1 119/37/1 120/38/1
f 121/35/1 122/36/1 123/37/1 124/38/1
f 125/6/1 126/26/1 127/39/1 128/7/1
f 129/29/1 130/30/1 131/31/1 132/32/1
f 133/6/1 134/26/1 135/39/1 136/7/1
f 137/35/1 138/36/1 139/37/1 140/38/1
f 141/35/1 142/36/1 143/37/1 144/38/1
f 145/23/1 146/24/1 147/6/1 148/5/1
f 149/24/1 150/25/1 151/26/1 152/6/1
f 153/29/1 154/30/1 155/31/1 156/32/1
f 157/29/1 158/30/1 159/31/1 160/32/1
f 161/29/1 162/30/1 163/31/1 164/32/1
f 165/23/1 166/24/1 167/6/1 168/5/1
f 169/24/1 170/25/1 171/26/1 172/6/1
f 173/29/1 174/30/1 175/31/1 176/32/1
f 177/29/1 178/30/1 179/31/1 180/32/1
f 181/29/1 182/30/1 183/31/1 184/32/1
f 185/40/1 186/8/1 187/41/1 188/42/1
f 189/40/1 190/8/1 191/41/1 192/42/1
f 193/18/1 194/19/1 195/20/1 196/21/1
f 197/18/1 198/19/1 199/20/1 200/21/1
f 201/40/1 202/8/1 203/41/1 204/42/1
f 205/40/1 206/8/1 207/41/1 208/42/1
f 209/43/1 210/5/1 211/8/1 212/40/1
f 213/43/1 214/5/1 215/8/1 216/40/1
f 217/27/1 218/28/1 219/19/1 220/18/1
f 221/27/1 222/28/1 223/19/1 224/18/1
f 225/43/1 226/5/1 227/8/1 228/40/1
f 229/43/1 230/5/1 231/8/1 232/40/1
f 233/33/1 234/34/1 235/28/1 236/27/1
f 237/33/1 238/34/1 239/28/1 240/27/1
f 241/7/1 242/39/1 243/44/1 244/45/1
f 245/7/1 246/39/1 247/44/1 248/45/1
f 249/29/1 250/30/1 251/31/1 252/32/1
f 253/7/1 254/39/1 255/44/1 256/45/1
f 257/7/1 258/39/1 259/44/1 260/45/1
f 261/40/1 262/8/1 263/41/1 264/42/1
f 265/40/1 266/8/1 267/41/1 268/42/1
f 269/18/1 270/19/1 271/20/1 272/21/1
f 273/18/1 274/19/1 275/20/1 276/21/1
f 277/40/1 278/8/1 279/41/1 280/42/1
f 281/40/1 282/8/1 283/41/1 284/42/1
f 285/43/1 286/5/1 287/8/1 288/40/1
f 289/43/1 290/5/1 291/8/1 292/40/1
f 293/27/1 294/28/1 295/19/1 296/18/1
f 297/27/1 298/28/1 299/19/1 300/18/1
f 301/43/1 302/5/1 303/8/1 304/40/1
f 305/43/1 306/5/1 307/8/1 308/40/1
f 309/33/1 310/34/1 311/28/1 312/27/1
f 313/33/1 314/34/1 315/28/1 316/27/1
f 317/7/1 318/39/1 319/44/1 320/45/1
f 321/7/1 322/39/1 323/44/1 324/45/1
f 325/7/1 326/39/1 327/44/1 328/45/1
f 329/7/1 330/39/1 331/44/1 332/45/1
f 333/40/1 334/8/1 335/41/1 336/42/1
f 337/40/1 338/8/1 339/41/1 340/42/1
f 341/18/1 342/19/1 343/20/1 344/21/1
f 345/18/1 346/19/1 347/20/1 348/21/1
f 349/40/1 350/8/1 351/41/1 352/42/1
f 353/40/1 354/8/1 355/41/1 356/42/1
f 357/43/1 358/5/1 359/8/1 360/40/1
f 361/43/1 362/5/1 363/8/1 364/40/1
f 365/27/1 366/28/1 367/19/1 368/18/1
f 369/27/1 370/28/1 371/19/1 372/18/1
f 373/43/1 374/5/1 375/8/1 376/40/1
f 377/43/1 378/5/1 379/8/1 380/40/1
f 381/33/1 382/34/1 383/28/1 384/27/1
f 385/33/1 386/34/1 387/28/1 388/27/1
f 389/7/1 390/39/1 391/44/1 392/45/1
f 393/7/1 394/39/1 395/44/1 396/45/1
f 397/7/1 398/39/1 399/44/1 400/45/1
f 401/7/1 402/39/1 403/44/1 404/45/1
f 405/40/1 406/8/1 407/41/1 408/42/1
f 409/40/1 410/8/1 411/41/1 412/42/1
f 413/18/1 414/19/1 415/20/1 416/21/1
f 417/18/1 418/19/1 419/20/1 420/21/1
f 421/40/1 422/8/1 423/41/1 424/42/1
f 425/40/1 426/8/1 427/41/1 428/42/1
f 429/43/1 430/5/1 431/8/1 432/40/1
f 433/43/1 434/5/1 435/8/1 436/40/1
f 437/27/1 438/28/1 439/19/1 440/18/1
f 441/27/1 442/28/1 443/19/1 444/18/1
f 445/43/1 446/5/1 447/8/1 448/40/1
f 449/43/1 450/5/1 451/8/1 452/40/1
f 453/33/1 454/34/1 455/28/1 456/27/1
f 457/33/1 458/34/1 459/28/1 460/27/1
f 461/7/1 462/39/1 463/44/1 464/45/1
f 465/7/1 466/39/1 467/44/1 468/45/1
f 469/7/1 470/39/1 471/44/1 472/45/1
f 473/7/1 474/39/1 475/44/1 476/45/1
f 477/40/1 478/8/1 479/41/1 480/42/1
f 481/40/1 482/8/1 483/41/1 484/42/1
f 485/18/1 486/19/1 487/20/1 488/21/1
f 489/18/1 490/19/1 491/20/1 492/21/1
f 493/40/1 494/8/1 495/41/1 496/42/1
f 497/40/1 498/8/1 499/41/1 500/42/1
f 501/43/1 502/5/1 503/8/1 504/40/1
f 505/43/1 506/5/1 507/8/1 508/40/1
f 509/27/1 510/28/1 511/19/1 512/18/1
f 513/27/1 514/28/1 515/19/1 516/18/1
f 517/43/1 518/5/1 519/8/1 520/40/1
f 521/43/1 522/5/1 523/8/1 524/40/1
f 525/33/1 526/34/1 527/28/1 528/27/1
f 529/33/1 530/34/1 531/28/1 532/27/1
f 533/7/1 534/39/1 535/44/1 536/45/1
f 537/7/1 538/39/1 539/44/1 540/45/1
f 541/7/1 542/39/1 543/44/1 544/45/1
f 545/7/1 546/39/1 547/44/1 548/45/1
f 549/40/1 550/8/1 551/41/1 552/42/1
f 553/40/1 554/8/1 555/41/1 556/42/1
f 557/40/1 558/8/1 559/41/1 560/42/1
f 561/40/1 562/8/1 563/41/1 564/42/1
f 565/43/1 566/5/1 567/8/1 568/40/1
f 569/43/1 570/5/1 571/8/1 572/40/1
f 573/43/1 574/5/1 575/8/1 576/40/1
f 577/43/1 578/5/1 579/8/1 580/40/1
f 581/7/1 582/39/1 583/44/1 584/45/1
f 585/7/1 586/39/1 587/44/1 588/45/1
f 589/18/1 590/19/1 591/20/1 592/21/1
f 593/18/1 594/19/1 595/20/1 596/21/1
f 597/7/1 598/39/1 599/44/1 600/45/1
f 601/7/1 602/39/1 603/44/1 604/45/1
f 605/27/1 606/28/1 607/19/1 608/18/1
f 609/27/1 610/28/1 611/19/1 612/18/1
f 613/33/1 614/34/1 615/28/1 616/27/1
f 617/33/1 618/34/1 619/28/1 620/27/1
f 621/5/1 622/6/1 623/7/1 624/8/1
f 625/5/1 626/6/1 627/7/1 628/8/1
f 629/5/1 630/6/1 631/7/1 632/8/1
f 633/5/1 634/6/1 635/7/1 636/8/1
f 637/5/1 638/6/1 639/7/1 640/8/1
f 641/5/1 642/6/1 643/7/1 644/8/1
f 645/5/1 646/6/1 647/7/1 648/8/1
f 649/5/1 650/6/1 651/7/1 652/8/1
f 653/7/1 654/39/1 655/44/1 656/45/1
f 657/7/1 658/39/1 659/44/1 660/45/1
f 661/7/1 662/39/1 663/44/1 664/45/1
f 665/7/1 666/39/1 667/44/1 668/45/1

