# Tiled2Unity generated file. Do not modify by hand.
# Wavefront file for 'Mapa1_mesh_0001.obj'

# Vertices (Count = 184)
v 0 -1.52381 0
v -1.52381 -1.52381 0
v -1.52381 0 0
v 0 0 0
v -1.52381 -1.52381 0
v -3.047619 -1.52381 0
v -3.047619 0 0
v -1.52381 0 0
v -3.047619 -1.52381 0
v -4.571429 -1.52381 0
v -4.571429 0 0
v -3.047619 0 0
v -4.571429 -1.52381 0
v -6.095238 -1.52381 0
v -6.095238 0 0
v -4.571429 0 0
v -6.095238 -1.52381 0
v -7.619048 -1.52381 0
v -7.619048 0 0
v -6.095238 0 0
v -7.619048 -1.52381 0
v -9.142858 -1.52381 0
v -9.142858 0 0
v -7.619048 0 0
v -9.142858 -1.52381 0
v -10.66667 -1.52381 0
v -10.66667 0 0
v -9.142858 0 0
v -10.66667 -1.52381 0
v -12.19048 -1.52381 0
v -12.19048 0 0
v -10.66667 0 0
v -12.19048 -1.52381 0
v -13.71429 -1.52381 0
v -13.71429 0 0
v -12.19048 0 0
v -13.71429 -1.52381 0
v -15.2381 -1.52381 0
v -15.2381 0 0
v -13.71429 0 0
v -15.2381 -1.52381 0
v -16.76191 -1.52381 0
v -16.76191 0 0
v -15.2381 0 0
v -16.76191 -1.52381 0
v -18.28572 -1.52381 0
v -18.28572 0 0
v -16.76191 0 0
v -18.28572 -1.52381 0
v -19.80952 -1.52381 0
v -19.80952 0 0
v -18.28572 0 0
v -19.80952 -1.52381 0
v -21.33333 -1.52381 0
v -21.33333 0 0
v -19.80952 0 0
v -21.33333 -1.52381 0
v -22.85714 -1.52381 0
v -22.85714 0 0
v -21.33333 0 0
v -22.85714 -1.52381 0
v -24.38095 -1.52381 0
v -24.38095 0 0
v -22.85714 0 0
v -24.38095 -1.52381 0
v -25.90476 -1.52381 0
v -25.90476 0 0
v -24.38095 0 0
v -25.90476 -1.52381 0
v -27.42857 -1.52381 0
v -27.42857 0 0
v -25.90476 0 0
v -27.42857 -1.52381 0
v -28.95238 -1.52381 0
v -28.95238 0 0
v -27.42857 0 0
v -28.95238 -1.52381 0
v -30.47619 -1.52381 0
v -30.47619 0 0
v -28.95238 0 0
v -30.47619 -1.52381 0
v -32 -1.52381 0
v -32 0 0
v -30.47619 0 0
v 0 -3.047619 0
v -1.52381 -3.047619 0
v -1.52381 -1.52381 0
v 0 -1.52381 0
v -30.47619 -3.047619 0
v -32 -3.047619 0
v -32 -1.52381 0
v -30.47619 -1.52381 0
v 0 -4.571429 0
v -1.52381 -4.571429 0
v -1.52381 -3.047619 0
v 0 -3.047619 0
v -30.47619 -4.571429 0
v -32 -4.571429 0
v -32 -3.047619 0
v -30.47619 -3.047619 0
v 0 -6.095238 0
v -1.52381 -6.095238 0
v -1.52381 -4.571429 0
v 0 -4.571429 0
v -30.47619 -6.095238 0
v -32 -6.095238 0
v -32 -4.571429 0
v -30.47619 -4.571429 0
v 0 -7.619048 0
v -1.52381 -7.619048 0
v -1.52381 -6.095238 0
v 0 -6.095238 0
v -13.71429 -7.619048 0
v -15.2381 -7.619048 0
v -15.2381 -6.095238 0
v -13.71429 -6.095238 0
v -15.2381 -7.619048 0
v -16.76191 -7.619048 0
v -16.76191 -6.095238 0
v -15.2381 -6.095238 0
v -16.76191 -7.619048 0
v -18.28572 -7.619048 0
v -18.28572 -6.095238 0
v -16.76191 -6.095238 0
v -30.47619 -7.619048 0
v -32 -7.619048 0
v -32 -6.095238 0
v -30.47619 -6.095238 0
v 0 -9.142858 0
v -1.52381 -9.142858 0
v -1.52381 -7.619048 0
v 0 -7.619048 0
v -13.71429 -9.142858 0
v -15.2381 -9.142858 0
v -15.2381 -7.619048 0
v -13.71429 -7.619048 0
v -15.2381 -9.142858 0
v -16.76191 -9.142858 0
v -16.76191 -7.619048 0
v -15.2381 -7.619048 0
v -16.76191 -9.142858 0
v -18.28572 -9.142858 0
v -18.28572 -7.619048 0
v -16.76191 -7.619048 0
v -30.47619 -9.142858 0
v -32 -9.142858 0
v -32 -7.619048 0
v -30.47619 -7.619048 0
v 0 -10.66667 0
v -1.52381 -10.66667 0
v -1.52381 -9.142858 0
v 0 -9.142858 0
v -13.71429 -10.66667 0
v -15.2381 -10.66667 0
v -15.2381 -9.142858 0
v -13.71429 -9.142858 0
v -15.2381 -10.66667 0
v -16.76191 -10.66667 0
v -16.76191 -9.142858 0
v -15.2381 -9.142858 0
v -16.76191 -10.66667 0
v -18.28572 -10.66667 0
v -18.28572 -9.142858 0
v -16.76191 -9.142858 0
v -30.47619 -10.66667 0
v -32 -10.66667 0
v -32 -9.142858 0
v -30.47619 -9.142858 0
v -28.95238 -12.19048 0
v -30.47619 -12.19048 0
v -30.47619 -10.66667 0
v -28.95238 -10.66667 0
v -30.47619 -12.19048 0
v -32 -12.19048 0
v -32 -10.66667 0
v -30.47619 -10.66667 0
v -28.95238 -13.71429 0
v -30.47619 -13.71429 0
v -30.47619 -12.19048 0
v -28.95238 -12.19048 0
v -30.47619 -13.71429 0
v -32 -13.71429 0
v -32 -12.19048 0
v -30.47619 -12.19048 0

# Texture cooridinates (Count = 29)
vt 0.25 0.1875
vt 0.3125 0.1875
vt 0.3125 0.25
vt 0.25 0.25
vt 0.8125 0.5625
vt 0.875 0.5625
vt 0.875 0.625
vt 0.8125 0.625
vt 0.9375 0.5625
vt 0.9375 0.625
vt 1 0.5625
vt 1 0.625
vt 0.8125 0.5
vt 0.875 0.5
vt 0.9375 0.5
vt 1 0.5
vt 0.8125 0.4375
vt 0.875 0.4375
vt 0.9375 0.4375
vt 1 0.4375
vt 0.5625 0.1875
vt 0.625 0.1875
vt 0.625 0.25
vt 0.5625 0.25
vt 0.6875 0.1875
vt 0.6875 0.25
vt 0.5625 0.125
vt 0.625 0.125
vt 0.6875 0.125

# Normal
vn 0 0 -1

# Mesh description
g Mapa1_mesh_0001

# Faces
f 1/1/1 2/2/1 3/3/1 4/4/1
f 5/1/1 6/2/1 7/3/1 8/4/1
f 9/1/1 10/2/1 11/3/1 12/4/1
f 13/1/1 14/2/1 15/3/1 16/4/1
f 17/1/1 18/2/1 19/3/1 20/4/1
f 21/1/1 22/2/1 23/3/1 24/4/1
f 25/1/1 26/2/1 27/3/1 28/4/1
f 29/1/1 30/2/1 31/3/1 32/4/1
f 33/1/1 34/2/1 35/3/1 36/4/1
f 37/1/1 38/2/1 39/3/1 40/4/1
f 41/1/1 42/2/1 43/3/1 44/4/1
f 45/1/1 46/2/1 47/3/1 48/4/1
f 49/1/1 50/2/1 51/3/1 52/4/1
f 53/1/1 54/2/1 55/3/1 56/4/1
f 57/1/1 58/2/1 59/3/1 60/4/1
f 61/1/1 62/2/1 63/3/1 64/4/1
f 65/1/1 66/2/1 67/3/1 68/4/1
f 69/1/1 70/2/1 71/3/1 72/4/1
f 73/1/1 74/2/1 75/3/1 76/4/1
f 77/1/1 78/2/1 79/3/1 80/4/1
f 81/1/1 82/2/1 83/3/1 84/4/1
f 85/1/1 86/2/1 87/3/1 88/4/1
f 89/1/1 90/2/1 91/3/1 92/4/1
f 93/1/1 94/2/1 95/3/1 96/4/1
f 97/1/1 98/2/1 99/3/1 100/4/1
f 101/1/1 102/2/1 103/3/1 104/4/1
f 105/1/1 106/2/1 107/3/1 108/4/1
f 109/1/1 110/2/1 111/3/1 112/4/1
f 113/5/1 114/6/1 115/7/1 116/8/1
f 117/6/1 118/9/1 119/10/1 120/7/1
f 121/9/1 122/11/1 123/12/1 124/10/1
f 125/1/1 126/2/1 127/3/1 128/4/1
f 129/1/1 130/2/1 131/3/1 132/4/1
f 133/13/1 134/14/1 135/6/1 136/5/1
f 137/14/1 138/15/1 139/9/1 140/6/1
f 141/15/1 142/16/1 143/11/1 144/9/1
f 145/1/1 146/2/1 147/3/1 148/4/1
f 149/1/1 150/2/1 151/3/1 152/4/1
f 153/17/1 154/18/1 155/14/1 156/13/1
f 157/18/1 158/19/1 159/15/1 160/14/1
f 161/19/1 162/20/1 163/16/1 164/15/1
f 165/1/1 166/2/1 167/3/1 168/4/1
f 169/21/1 170/22/1 171/23/1 172/24/1
f 173/22/1 174/25/1 175/26/1 176/23/1
f 177/27/1 178/28/1 179/22/1 180/21/1
f 181/28/1 182/29/1 183/25/1 184/22/1

